<?xml version="1.0" encoding="utf-8"?>
<!-- Generator: Adobe Illustrator 16.0.0, SVG Export Plug-In . SVG Version: 6.00 Build 0)  -->
<!DOCTYPE svg PUBLIC "-//W3C//DTD SVG 1.1//EN" "http://www.w3.org/Graphics/SVG/1.1/DTD/svg11.dtd">
<svg version="1.1" id="圖層_1" xmlns="http://www.w3.org/2000/svg" xmlns:xlink="http://www.w3.org/1999/xlink" x="0px" y="0px"
	 width="695.05px" height="695.05px" viewBox="0 0 695.05 695.05" enable-background="new 0 0 695.05 695.05" xml:space="preserve">
<path fill="#5B4282" d="M398.407,352.125c-9.733-3.204-23.746-2.516-42.036-2.516h-73.485v95.917h78.584
	c12.278,0,20.902-1.314,25.869-2.231c8.754-1.568,16.072-4.605,21.954-8.266c5.875-3.653,10.708-9.195,14.503-16.186
	c3.787-6.988,5.686-15.167,5.686-24.313c0-10.708-2.745-18.933-8.237-26.839C415.755,359.785,408.144,355.328,398.407,352.125z
	 M388.319,308.269c9.663-2.869,16.949-7.881,21.848-14.541c4.904-6.665,7.354-15.143,7.354-25.206
	c0-9.533-2.289-17.991-6.865-25.246c-4.575-7.257-11.101-10.063-19.596-12.745c-8.494-2.673-23.061-1.86-43.705-1.86h-64.468v83.406
	h69.172C368.914,312.077,380.996,310.493,388.319,308.269L388.319,308.269z M608.168,156.212c0-38.292-31.04-69.331-69.331-69.331
	H156.212c-38.292,0-69.331,31.04-69.331,69.331v382.625c0,38.291,31.04,69.331,69.331,69.331h382.625
	c38.291,0,69.331-31.04,69.331-69.331V156.212L608.168,156.212z M460.343,431.952c-5.681,11.565-12.706,20.48-21.068,26.753
	c-8.364,6.272-18.853,11.594-31.461,14.796c-12.602,3.208-28.058,5.39-46.345,5.39H245.353V191.138h114.35
	c21.952,0,39.554,2.541,52.816,8.35c13.266,5.817,23.65,14.583,31.169,26.669c7.512,12.086,11.268,24.634,11.268,37.828
	c0,12.281-3.335,23.805-9.996,34.647c-6.663,10.852-16.727,19.574-30.18,26.238c17.373,5.096,30.735,13.779,40.078,26.057
	c9.34,12.281,14.011,26.781,14.011,43.504C468.868,407.89,466.029,420.393,460.343,431.952L460.343,431.952z"/>
</svg>
