<?xml version="1.0" encoding="utf-8"?>
<!-- Generator: Adobe Illustrator 16.0.0, SVG Export Plug-In . SVG Version: 6.00 Build 0)  -->
<!DOCTYPE svg PUBLIC "-//W3C//DTD SVG 1.1//EN" "http://www.w3.org/Graphics/SVG/1.1/DTD/svg11.dtd">
<svg version="1.1" id="圖層_1" xmlns="http://www.w3.org/2000/svg" xmlns:xlink="http://www.w3.org/1999/xlink" x="0px" y="0px"
	 width="695.055px" height="981.141px" viewBox="0 0 695.055 981.141" enable-background="new 0 0 695.055 981.141"
	 xml:space="preserve">
<g>
	<g>
		<path fill="#231815" d="M544.672,45.75h-57.688l59.992,65.102v30.992H423.414v-36.289h59.984l-59.984-65.102V9.43h121.258V45.75
			L544.672,45.75z M398.914,45.75h-57.688l59.992,65.102v30.992h-123.57v-36.289h59.992l-59.992-65.102V9.43h121.266V45.75z
			 M254.586,47.234h-62.25v56.805h62.25v37.805h-106.5V9.43h106.5V47.234z"/>
		<path fill="#1572B6" d="M63.258,911.766L0,202.289h695.055l-63.313,709.359L347.102,990.57L63.258,911.766L63.258,911.766z"/>
	</g>
	<path fill="#33A9DC" d="M347.539,930.25l229.992-63.766l54.109-606.18H347.539V930.25L347.539,930.25z"/>
	<path fill="#FFFFFF" d="M347.531,517.344h115.141l7.961-89.102H347.531v-87.016h218.195l-2.086,23.344l-21.384,239.781H347.531
		V517.344z"/>
	<path fill="#EBEBEB" d="M348.055,743.328l-0.384,0.108l-96.905-26.172l-6.203-69.397h-87.336l12.194,136.625l178.234,49.477
		l0.406-0.117v-90.522L348.055,743.328L348.055,743.328z"/>
	<path fill="#FFFFFF" d="M455.281,600.672l-10.484,116.531l-97.047,26.195v90.53l178.383-49.438l1.313-14.703l15.141-169.117
		L455.281,600.672L455.281,600.672z"/>
	<path fill="#EBEBEB" d="M347.836,341.227v87.008h-210.18l-1.75-19.555l-3.961-44.109l-2.086-23.344H347.836z M347.531,517.352
		v87.017h-95.68l-1.742-19.555l-3.969-44.117l-2.086-23.345H347.531z"/>
</g>
</svg>
