<?xml version="1.0" encoding="utf-8"?>
<!-- Generator: Adobe Illustrator 16.0.0, SVG Export Plug-In . SVG Version: 6.00 Build 0)  -->
<!DOCTYPE svg PUBLIC "-//W3C//DTD SVG 1.1//EN" "http://www.w3.org/Graphics/SVG/1.1/DTD/svg11.dtd">
<svg version="1.1" id="圖層_1" xmlns="http://www.w3.org/2000/svg" xmlns:xlink="http://www.w3.org/1999/xlink" x="0px" y="0px"
	 width="695.05px" height="695.05px" viewBox="152.475 152.475 695.05 695.05"
	 enable-background="new 152.475 152.475 695.05 695.05" xml:space="preserve">
<path fill="#F34F29" d="M565.847,425.896c-42.262,0-63.262,22.078-63.262,53.87c0,20.465,10.224,34.964,23.762,41.599
	c-6.631,6.084-12.152,11.404-17.126,16.653c-4.98,5.26-8.016,10.813-8.016,16.901c0,7.47,3.035,14.393,12.155,18.25
	c-9.667,9.138-15.198,15.769-15.198,28.217c0,21.841,19.063,34.565,69.07,34.565c48.075,0,75.972-17.963,75.972-49.766
	c0-36.759-28.173-38.146-75.972-41.195l-27.074-1.657l9.121-14.653c4.963,1.382,12.984,2.486,21.834,2.486
	c34.804,0,58.841-17.968,58.841-48.666c0-12.719-6.276-21.565-11.245-27.93l24.407-1.934v-24.465h-51.846
	C584.922,428.173,577.728,425.896,565.847,425.896L565.847,425.896z M578.279,583.425c13.271,0.828,23.772,1.381,23.772,10.243
	c0,14.912-21.833,16.034-37.851,16.034c-19.344,0-33.434-3.327-33.434-14.382c0-5.536,3.589-10.233,7.188-14.653L578.279,583.425z
	 M567.52,502.138c-18.24,0-25.699-9.409-25.699-22.951c0-17.973,11.324-25.443,26.521-25.443c15.747,0,25.143,8.575,25.143,24.885
	C593.484,493.016,582.983,502.138,567.52,502.138z M693.76,404.332c16.021,0,25.141-9.127,25.141-24.896
	c0-15.747-9.12-24.327-25.141-24.327c-15.751,0-24.872,8.581-24.872,24.327C668.888,395.198,678.009,404.332,693.76,404.332z
	 M714.887,541.189V428.173h-53.733l-3.037,21.526l14.725,4.829c2.771,0.823,3.4,2.337,3.4,5.375v81.286
	c0,4.155-2.33,4.984-6.199,5.542l-15.884,1.934v23.161h82.812v-23.161l-15.877-1.934
	C716.936,546.174,714.887,545.627,714.887,541.189L714.887,541.189z M838.652,535.443c-6.636,2.486-14.529,4.415-22.276,4.415
	c-14.912,0-18.677-6.354-18.677-22.67v-66.915h38.646v-27.626h-36.647c-2.214,0-1.998-0.017-1.998-1.95v-36.726h-26.461
	c-3.036,27.626-17.705,39.759-39.79,42.533v23.77h22.101c2.214,0-0.016,1.95-0.016,3.602v72.441
	c0,31.255,13.548,44.521,46.419,44.521c15.756,0,33.716-5.254,45.602-11.056L838.652,535.443L838.652,535.443z M310.421,360.799
	c-7.271-7.282-19.075-7.282-26.352,0l-26.229,26.25l33.273,33.3c7.735-2.614,16.602-0.862,22.769,5.31
	c6.194,6.205,7.933,15.155,5.255,22.924l32.07,32.095c7.762-2.674,16.712-0.945,22.906,5.266c8.668,8.663,8.668,22.708,0,31.376
	c-8.662,8.676-22.69,8.676-31.358,0c-6.514-6.524-8.965-16.1-5.659-24.133l-30.751-29.93v78.772c0,1.045,4.941,2.438,6.703,4.194
	c8.656,8.663,9.077,22.708,0.414,31.388c-8.662,8.664-22.492,8.664-31.148,0c-8.657-8.68-8.552-22.72,0.111-31.388
	c2.142-2.139,1.838-3.758,7.359-4.84v-79.502c-5.521-1.083-5.119-2.69-7.254-4.84c-6.56-6.564-8.138-16.194-4.776-24.255
	L244.95,399.95l-86.616,86.684c-7.282,7.288-7.282,19.101,0,26.376l126.328,126.422c7.271,7.277,19.069,7.277,26.351,0
	l125.736-125.841c7.271-7.282,7.271-19.095,0-26.377L310.421,360.799L310.421,360.799z"/>
</svg>
