<?xml version="1.0" encoding="utf-8"?>
<!-- Generator: Adobe Illustrator 16.0.0, SVG Export Plug-In . SVG Version: 6.00 Build 0)  -->
<!DOCTYPE svg PUBLIC "-//W3C//DTD SVG 1.1//EN" "http://www.w3.org/Graphics/SVG/1.1/DTD/svg11.dtd">
<svg version="1.1" id="圖層_1" xmlns="http://www.w3.org/2000/svg" xmlns:xlink="http://www.w3.org/1999/xlink" x="0px" y="0px"
	 width="695.05px" height="695.05px" viewBox="0 0 695.05 695.05" enable-background="new 0 0 695.05 695.05" xml:space="preserve">
<g>
	<g>
		<path fill="#E34F26" d="M134.148,555.224L86.73,86.881h521.59l-47.417,468.343l-213.956,52.945"/>
	</g>
	<path fill="#EF652A" d="M348.103,567.442l172.322-41.743l40.479-401.146H348.103"/>
	<path fill="#EBEBEB" d="M348.103,298.653h-86.738l-5.783-59.052h92.521v-57.016H183.877l17.348,174.102h146.877L348.103,298.653
		L348.103,298.653z M346.947,448.321l-72.859-17.309l-4.626-45.815h-64.766l8.095,90.613l134.156,32.58V448.321z"/>
	<path fill="#FFFFFF" d="M346.947,298.653v58.034h80.955l-8.096,74.325l-72.859,17.309v60.07l134.156-32.581l18.505-177.157H346.947
		z M346.947,182.585v57.016H505.39l5.783-57.016H346.947z"/>
</g>
</svg>
