<?xml version="1.0" encoding="utf-8"?>
<!-- Generator: Adobe Illustrator 16.0.0, SVG Export Plug-In . SVG Version: 6.00 Build 0)  -->
<!DOCTYPE svg PUBLIC "-//W3C//DTD SVG 1.1//EN" "http://www.w3.org/Graphics/SVG/1.1/DTD/svg11.dtd">
<svg version="1.1" id="圖層_1" xmlns="http://www.w3.org/2000/svg" xmlns:xlink="http://www.w3.org/1999/xlink" x="0px" y="0px"
	 width="695.05px" height="695.05px" viewBox="0 0 695.05 695.05" enable-background="new 0 0 695.05 695.05" xml:space="preserve">
<g transform="translate(0 -130.746)">
	
		<radialGradient id="SVGID_1_" cx="-126.7778" cy="897.2914" r="360.6774" gradientTransform="matrix(1 0 0 1 393.3179 -552.0029)" gradientUnits="userSpaceOnUse">
		<stop  offset="0" style="stop-color:#423325;stop-opacity:0.98"/>
		<stop  offset="1" style="stop-color:#1C0A00"/>
	</radialGradient>
	<path fill="url(#SVGID_1_)" d="M110.23,240.982h474.581V715.56H110.23V240.982z"/>
	<path fill="#FF7F18" d="M108.602,239.904h477.847v476.735H108.602V239.904z M86.881,738.915h521.289V217.627H86.881V738.915z
		 M428.324,403.419c0-1.782,0.651-2.675,2.605-2.675h34.102c1.737,0,2.607,0.67,2.607,2.675v175.77c0,1.779-0.434,2.672-2.607,2.672
		h-33.666c-2.172,0-2.824-1.113-2.824-2.896V403.419H428.324z M425.934,352.855c0-14.258,9.775-22.724,22.154-22.724
		c13.25,0,22.156,9.133,22.156,22.724c0,14.702-9.34,22.722-22.59,22.722c-12.598-0.006-21.721-8.024-21.721-22.729V352.855
		L425.934,352.855z M328.194,476.716c-6.082-24.729-20.416-78.638-25.847-104.703h-0.435
		c-4.562,26.065-16.074,70.172-25.197,104.703H328.194z M267.81,512.807l-17.158,66.825c-0.435,1.779-1.085,2.228-3.259,2.228
		h-31.928c-2.171,0-2.607-0.672-2.171-3.342l61.686-221.438c1.086-4.008,1.737-7.574,2.172-18.489c0-1.564,0.652-2.229,1.738-2.229
		H324.5c1.521,0,2.172,0.445,2.607,2.229l69.07,240.375c0.435,1.779,0,2.896-1.736,2.896h-36.058c-1.737,0-2.824-0.447-3.258-2.005
		l-17.811-67.055H267.81V512.807z"/>
</g>
</svg>
