<?xml version="1.0" encoding="utf-8"?>
<!-- Generator: Adobe Illustrator 16.0.0, SVG Export Plug-In . SVG Version: 6.00 Build 0)  -->
<!DOCTYPE svg PUBLIC "-//W3C//DTD SVG 1.1//EN" "http://www.w3.org/Graphics/SVG/1.1/DTD/svg11.dtd">
<svg version="1.1" id="圖層_1" xmlns="http://www.w3.org/2000/svg" xmlns:xlink="http://www.w3.org/1999/xlink" x="0px" y="0px"
	 width="696.025px" height="981.14px" viewBox="0 0 696.025 981.14" enable-background="new 0 0 696.025 981.14"
	 xml:space="preserve">
<path fill="#E6A329" d="M696.513,192.263h-697l65.344,708.581l283.121,80.296l283.123-80.296L696.513,192.263z"/>
<path fill="#F1BF22" d="M347.978,249.992v671.1l229.389-64.989l55.805-606.11H347.978z"/>
<path fill="#FFFFFF" d="M530.476,336.921H177.765l-24.562,265.273l0.502-1.655h299.644l-9.754,112.243l-95.608,27.499l-97.02-27.95
	l-5.805-67.926h-88.061l12.554,135.739l178.331,50.623l178.408-50.623l24.563-266.444H232.955l4.08-88.771h220.636l3.303,50.863
	h88.805L530.476,336.921z"/>
<path fill="#EBEBEB" d="M348.057,336.921H177.765l-24.562,265.273l0.502-1.655h194.343v-86.535H245.354l4.08-88.771h98.623V336.921
	L348.057,336.921z M245.354,644.45h-88.27l12.563,135.669l178.331,50.563v-90.278l-97.02-28.021L245.354,644.45z"/>
<path fill="#231815" d="M280.208,87.753h-62.051v44.546H324.62V0H280.26L280.208,87.753z M477.841,0.71H369.682v46.311
	c14.442,14.441,21.971,21.392,43.25,42.311h-43.25v42.232h108.151V89.406l-43.207-42.312h43.25L477.841,0.71z"/>
</svg>
