<?xml version="1.0" encoding="utf-8"?>
<!-- Generator: Adobe Illustrator 16.0.0, SVG Export Plug-In . SVG Version: 6.00 Build 0)  -->
<!DOCTYPE svg PUBLIC "-//W3C//DTD SVG 1.1//EN" "http://www.w3.org/Graphics/SVG/1.1/DTD/svg11.dtd">
<svg version="1.1" id="圖層_1" xmlns="http://www.w3.org/2000/svg" xmlns:xlink="http://www.w3.org/1999/xlink" x="0px" y="0px"
	 width="695.05px" height="695.05px" viewBox="0 0 695.05 695.05" enable-background="new 0 0 695.05 695.05" xml:space="preserve">
<g>
	
		<radialGradient id="SVGID_1_" cx="414.1392" cy="-543.0625" r="0.1582" gradientTransform="matrix(2291.6716 0 0 2218.7549 -948803 1205142.625)" gradientUnits="userSpaceOnUse">
		<stop  offset="0" style="stop-color:#34364E;stop-opacity:0.98"/>
		<stop  offset="1" style="stop-color:#0C0824"/>
	</radialGradient>
	<path fill="url(#SVGID_1_)" d="M108.602,115.117H586.45v464.815H108.602V115.117L108.602,115.117z"/>
	<path fill="#31C5F0" d="M108.602,115.117H586.45v464.815H108.602V115.117L108.602,115.117z M86.881,601.653h521.289V93.397H86.881
		V601.653L86.881,601.653z M438.316,301.912c-17.159,0-23.021,8.688-23.021,15.857c0,7.817,3.908,13.248,26.933,25.195
		c34.101,16.507,44.743,32.361,44.743,55.604c0,34.754-26.498,53.432-62.338,53.432c-18.895,0-35.187-3.911-44.525-9.338
		c-1.52-0.652-1.738-1.737-1.738-3.478v-31.928c0-2.173,1.087-2.824,2.607-1.737c13.684,8.906,29.323,12.815,43.656,12.815
		c17.161,0,24.328-7.169,24.328-16.942c0-7.819-4.994-14.77-26.934-26.065c-30.842-14.769-43.656-29.755-43.656-54.735
		c0-28.02,21.938-51.259,59.947-51.259c18.681,0,31.712,2.824,38.881,6.08c1.736,1.087,2.171,2.824,2.171,4.345v29.757
		c0,1.737-1.085,2.824-3.258,2.171C466.552,305.605,452.434,301.912,438.316,301.912L438.316,301.912z M251.522,327.759
		c4.995,0.434,8.906,0.434,17.593,0.434c25.414,0,49.307-8.905,49.307-43.44c0-27.583-17.161-41.484-46.047-41.484
		c-8.688,0-16.942,0.434-20.852,0.65V327.759z M212.86,212.423c0-1.52,3.041-2.607,4.778-2.607
		c13.901-0.65,34.535-1.084,56.038-1.084c60.166,0,83.624,33.013,83.624,75.152c0,55.169-39.966,78.844-89.054,78.844
		c-8.253,0-11.077-0.434-16.942-0.434V445.7c0,1.737-0.652,2.605-2.606,2.605h-33.233c-1.737,0-2.606-0.65-2.606-2.605V212.423
		H212.86z"/>
</g>
</svg>
