<?xml version="1.0" encoding="utf-8"?>
<!-- Generator: Adobe Illustrator 16.0.0, SVG Export Plug-In . SVG Version: 6.00 Build 0)  -->
<!DOCTYPE svg PUBLIC "-//W3C//DTD SVG 1.1//EN" "http://www.w3.org/Graphics/SVG/1.1/DTD/svg11.dtd">
<svg version="1.1" id="圖層_1" xmlns="http://www.w3.org/2000/svg" xmlns:xlink="http://www.w3.org/1999/xlink" x="0px" y="0px"
	 width="695.05px" height="695.05px" viewBox="902.475 902.475 695.05 695.05"
	 enable-background="new 902.475 902.475 695.05 695.05" xml:space="preserve">
<g>
	<defs>
		<path id="SVGID_1_" d="M1250,1432.814c191.929,0,347.529-81.855,347.529-182.814S1441.933,1067.186,1250,1067.186
			S902.471,1149.036,902.471,1250S1058.072,1432.814,1250,1432.814L1250,1432.814z"/>
	</defs>
	<clipPath id="SVGID_2_">
		<use xlink:href="#SVGID_1_"  overflow="visible"/>
	</clipPath>
	<g clip-path="url(#SVGID_2_)">
		<g>
			<defs>
				<rect id="SVGID_3_" x="902.471" y="1067.189" width="695.055" height="365.625"/>
			</defs>
			<clipPath id="SVGID_4_">
				<use xlink:href="#SVGID_3_"  overflow="visible"/>
			</clipPath>
		</g>
		<g>
			<defs>
				<path id="SVGID_5_" d="M1250,1432.814c191.929,0,347.529-81.855,347.529-182.814S1441.933,1067.186,1250,1067.186
					S902.471,1149.036,902.471,1250S1058.072,1432.814,1250,1432.814L1250,1432.814z"/>
			</defs>
			<clipPath id="SVGID_6_">
				<use xlink:href="#SVGID_5_"  overflow="visible"/>
			</clipPath>
			<g clip-path="url(#SVGID_6_)">
				<g>
					<defs>
						<rect id="SVGID_7_" x="902.471" y="1067.189" width="695.055" height="365.625"/>
					</defs>
					<clipPath id="SVGID_8_">
						<use xlink:href="#SVGID_7_"  overflow="visible"/>
					</clipPath>
				</g>
				<path fill="#6E81B6" d="M1250,1419.242c184.438,0,333.952-75.773,333.952-169.238S1434.438,1080.767,1250,1080.767
					c-184.434,0-333.952,75.772-333.952,169.237S1065.566,1419.242,1250,1419.242L1250,1419.242z"/>
				<path fill="#FFFFFF" d="M1317.652,1304.706l16.564-85.255c3.739-19.242,0.63-33.595-9.235-42.664
					c-9.559-8.775-25.784-13.043-49.602-13.043h-28.688l8.206-42.24c0.575-2.942-1.343-5.793-4.285-6.368
					c-0.342-0.067-0.691-0.102-1.041-0.102h-39.595c-2.601,0-4.834,1.846-5.331,4.398l-17.594,90.508
					c-1.6-10.184-5.54-18.938-11.848-26.163c-11.614-13.294-29.984-20.033-54.605-20.033h-76.742c-2.601,0-4.834,1.845-5.331,4.393
					l-35.604,183.206c-0.312,1.596,0.104,3.235,1.139,4.487c1.03,1.255,2.564,1.979,4.191,1.979h39.906
					c2.601,0,4.833-1.846,5.33-4.402l8.613-44.312h29.706c15.587,0,28.687-1.688,38.912-5.015
					c10.454-3.4,20.078-9.167,28.558-17.106c6.853-6.295,12.515-13.346,16.872-20.95l-7.111,36.603
					c-0.311,1.595,0.105,3.243,1.139,4.486c1.029,1.256,2.568,1.979,4.191,1.979h39.595c2.601,0,4.834-1.845,5.331-4.394
					l19.54-100.563h27.17c11.577,0,14.97,2.306,15.894,3.295c0.837,0.905,2.573,4.091,0.622,14.134l-15.749,81.06
					c-0.566,2.95,1.366,5.801,4.316,6.367c0.334,0.064,0.674,0.098,1.015,0.098h40.225
					C1314.922,1309.092,1317.156,1307.254,1317.652,1304.706L1317.652,1304.706z M1134.083,1234.264
					c-2.487,12.78-7.172,21.895-13.932,27.092c-6.865,5.294-17.845,7.976-32.637,7.976h-17.688l12.789-65.815h22.868
					c16.799,0,23.567,3.59,26.285,6.599C1135.537,1214.29,1136.336,1222.646,1134.083,1234.264z M1484.435,1183.777
					c-11.609-13.294-29.979-20.033-54.601-20.033h-76.742c-2.604,0-4.834,1.845-5.33,4.393l-35.602,183.206
					c-0.314,1.596,0.102,3.235,1.135,4.487c1.034,1.252,2.572,1.979,4.188,1.979h39.909c2.604,0,4.834-1.846,5.33-4.402
					l8.614-44.312h29.708c15.592,0,28.68-1.688,38.909-5.015c10.459-3.4,20.082-9.167,28.558-17.106
					c7.075-6.497,12.895-13.803,17.305-21.688c4.409-7.887,7.571-16.683,9.417-26.147
					C1499.769,1215.792,1496.138,1197.168,1484.435,1183.777L1484.435,1183.777z M1445.583,1234.263
					c-2.491,12.781-7.176,21.896-13.928,27.093c-6.869,5.294-17.849,7.976-32.637,7.976h-17.691l12.784-65.815h22.873
					c16.799,0,23.567,3.59,26.289,6.599C1447.033,1214.29,1447.837,1222.646,1445.583,1234.263L1445.583,1234.263z"/>
				<path d="M1105.484,1198.085c15.159,0,25.268,2.798,30.319,8.396c5.048,5.597,6.25,15.207,3.61,28.82
					c-2.763,14.179-8.077,24.298-15.951,30.363c-7.875,6.065-19.86,9.095-35.948,9.095h-24.278l14.901-76.674H1105.484
					L1105.484,1198.085z M1008.248,1352.377h39.906l9.47-48.705h34.184c15.082,0,27.491-1.587,37.231-4.757
					s18.596-8.48,26.563-15.938c6.688-6.143,12.099-12.927,16.242-20.341c4.139-7.414,7.078-15.592,8.819-24.536
					c4.225-21.718,1.038-38.634-9.551-50.749c-10.584-12.118-27.427-18.176-50.514-18.176h-76.742L1008.248,1352.377z
					 M1209.974,1120.466h39.595l-9.466,48.709h35.277c22.187,0,37.503,3.869,45.927,11.61s10.948,20.288,7.58,37.632l-16.564,85.255
					h-40.225l15.748-81.063c1.79-9.223,1.135-15.511-1.979-18.866c-3.113-3.352-9.74-5.032-19.867-5.032h-31.644l-20.397,104.962
					h-39.595L1209.974,1120.466z M1416.984,1198.085c15.159,0,25.264,2.798,30.319,8.396c5.048,5.597,6.247,15.207,3.606,28.82
					c-2.755,14.179-8.069,24.298-15.947,30.363c-7.87,6.065-19.86,9.095-35.94,9.095h-24.277l14.896-76.674H1416.984z
					 M1319.74,1352.377h39.909l9.466-48.705h34.184c15.087,0,27.496-1.587,37.236-4.757s18.596-8.48,26.563-15.938
					c6.688-6.143,12.099-12.927,16.238-20.341c4.139-7.414,7.083-15.592,8.827-24.536c4.22-21.718,1.034-38.634-9.55-50.749
					c-10.593-12.118-27.433-18.176-50.519-18.176h-76.742L1319.74,1352.377L1319.74,1352.377z"/>
			</g>
		</g>
	</g>
</g>
</svg>
