<?xml version="1.0" encoding="utf-8"?>
<!-- Generator: Adobe Illustrator 16.0.0, SVG Export Plug-In . SVG Version: 6.00 Build 0)  -->
<!DOCTYPE svg PUBLIC "-//W3C//DTD SVG 1.1//EN" "http://www.w3.org/Graphics/SVG/1.1/DTD/svg11.dtd">
<svg version="1.1" id="圖層_1" xmlns="http://www.w3.org/2000/svg" xmlns:xlink="http://www.w3.org/1999/xlink" x="0px" y="0px"
	 width="695.05px" height="695.05px" viewBox="0 0 695.05 695.05" enable-background="new 0 0 695.05 695.05" xml:space="preserve">
<path fill="#0868AC" d="M151.27,130.825c-39.811,54.258-34.856,124.857-4.44,182.52l2.225,4.098l1.425,2.6l0.889,1.494l1.586,2.689
	c0.942,1.577,1.912,3.143,2.903,4.72l1.657,2.588c1.099,1.675,2.22,3.34,3.368,4.997l1.435,2.101
	c1.586,2.245,3.206,4.479,4.878,6.682l0.142,0.169l0.824,1.053c1.446,1.889,2.935,3.758,4.445,5.614l1.673,2.018
	c1.348,1.607,2.717,3.199,4.109,4.797l1.57,1.777c1.869,2.084,3.78,4.17,5.725,6.205l0.113,0.113l0.223,0.23
	c1.9,1.967,3.843,3.893,5.82,5.817l1.863,1.78c1.526,1.461,3.081,2.895,4.646,4.322l1.9,1.711c2.096,1.871,4.208,3.711,6.368,5.498
	l0.099,0.08l1.109,0.896c1.901,1.565,3.835,3.104,5.783,4.632l2.395,1.813c1.592,1.207,3.201,2.404,4.82,3.574l2.582,1.854
	c1.786,1.248,3.591,2.476,5.411,3.683l1.965,1.325l0.546,0.369c1.721,1.13,3.493,2.214,5.252,3.296l2.275,1.439
	c2.707,1.617,5.453,3.227,8.225,4.777l2.274,1.217c2.041,1.115,4.094,2.213,6.172,3.281l3.419,1.674l4.417,2.176l1.018,0.471
	l1.809,0.826c2.312,1.047,4.646,2.078,7.001,3.076l1.479,0.625c2.696,1.119,5.419,2.193,8.167,3.227l1.993,0.738
	c2.538,0.936,5.115,1.846,7.705,2.707l0.968,0.316c2.837,0.949,5.708,1.814,8.594,2.672l2.074,0.586
	c2.935,0.842,5.843,1.84,8.868,2.373c192.521,33.295,248.441-109.716,248.441-109.716c-46.969,58.032-130.334,73.335-209.322,56.296
	c-2.994-0.644-5.898-1.531-8.816-2.344l-2.197-0.636c-2.848-0.826-5.681-1.695-8.489-2.619l-1.166-0.396
	c-2.518-0.842-5.002-1.725-7.483-2.635l-2.101-0.779c-2.714-1.018-5.416-2.08-8.081-3.185l-1.612-0.685
	c-2.291-0.98-4.56-1.973-6.819-3.004l-1.97-0.899c-1.77-0.813-3.519-1.683-5.272-2.541l-3.517-1.75
	c-2.138-1.08-4.235-2.21-6.318-3.358l-2.134-1.125c-2.777-1.557-5.518-3.16-8.232-4.785l-2.22-1.402
	c-1.965-1.203-3.927-2.43-5.854-3.693l-1.89-1.257c-1.863-1.245-3.709-2.511-5.533-3.791l-2.454-1.761
	c-1.679-1.217-3.347-2.443-4.992-3.702l-2.226-1.694c-2.101-1.633-4.175-3.287-6.223-4.977l-0.682-0.54
	c-2.215-1.844-4.391-3.737-6.541-5.637l-1.84-1.686c-1.593-1.433-3.164-2.881-4.701-4.372l-1.842-1.746
	c-1.96-1.9-3.881-3.825-5.768-5.781l-0.287-0.292c-1.992-2.065-3.941-4.176-5.848-6.312l-1.533-1.727
	c-1.424-1.622-2.832-3.276-4.207-4.936l-1.543-1.823c-1.663-2.039-3.277-4.073-4.862-6.136
	c-43.851-56.733-59.609-134.979-24.558-199.237 M274.84,85.106c-28.786,39.288-27.227,91.893-4.764,133.439
	c3.764,6.965,7.998,13.727,12.73,20.157c4.31,5.871,9.097,12.844,14.822,17.553c2.072,2.167,4.243,4.284,6.46,6.358l1.7,1.596
	c2.149,1.978,4.338,3.924,6.595,5.815l0.271,0.22l0.065,0.063c2.5,2.08,5.084,4.077,7.705,6.049l1.749,1.294
	c2.633,1.911,5.313,3.79,8.063,5.583l0.231,0.171l3.684,2.294l1.744,1.093c1.967,1.197,3.952,2.359,5.979,3.472l0.844,0.473
	c1.744,0.949,3.509,1.884,5.278,2.8l1.878,0.923l3.693,1.819l0.559,0.241c2.541,1.181,5.096,2.326,7.713,3.405l1.699,0.668
	c2.09,0.837,4.197,1.66,6.316,2.43l2.709,0.945c1.93,0.679,3.854,1.299,5.805,1.916l2.621,0.795c2.77,0.813,5.508,1.844,8.391,2.303
	c148.641,23.351,182.955-85.191,182.955-85.191c-30.932,42.255-90.838,62.413-154.762,46.677c-2.836-0.709-5.645-1.48-8.42-2.307
	l-2.531-0.774c-1.977-0.602-3.941-1.249-5.883-1.92l-2.66-0.94c-2.135-0.781-4.246-1.586-6.34-2.429l-1.707-0.683
	c-2.627-1.085-5.211-2.229-7.754-3.421l-3.891-1.875l-2.24-1.093c-1.654-0.853-3.303-1.736-4.922-2.64l-1.174-0.633
	c-2.016-1.113-3.998-2.26-5.959-3.451l-1.797-1.134l-3.855-2.425c-2.738-1.792-5.408-3.666-8.033-5.571l-1.813-1.355
	c-27.978-20.95-50.158-49.585-60.701-82.053c-11.051-33.674-8.669-71.473,10.479-102.153 M378.771,50.95
	c-16.971,23.686-18.639,53.108-6.861,79.27c12.42,27.769,37.863,49.548,67.564,59.881l3.693,1.208l1.623,0.493
	c1.75,0.524,3.488,1.129,5.297,1.448c82.076,15.043,104.338-39.939,110.262-48.039c-19.5,26.628-52.271,33.022-92.482,23.763
	c-3.174-0.729-6.668-1.817-9.729-2.85c-3.924-1.33-7.791-2.839-11.555-4.549c-7.137-3.256-13.943-7.2-20.258-11.72
	c-35.982-25.893-58.332-75.282-34.852-115.511"/>
<path fill="#231815" d="M360.294,520.486h-22.881c-1.269,0-2.53,0.965-2.8,2.141l-8.123,35.641l-8.121,35.643
	c-0.266,1.178-1.527,2.145-2.795,2.145h-16.196c-16.024,0-14.171-10.512-10.892-24.914l0.097-0.436l0.357-1.82l0.065-0.338
	l0.731-3.695l0.786-3.961l0.833-4.029l3.693-17.115l3.698-17.111c0.255-1.18-0.58-2.148-1.846-2.148h-23.486
	c-1.266,0-2.522,0.965-2.785,2.145l-5.052,22.721l-5.045,22.727l-0.012,0.031l-0.466,2.113
	c-5.815,25.182-4.277,49.199,27.335,49.953l0.921,0.02h49.618c1.269,0,2.528-0.965,2.793-2.145l10.701-47.705l10.701-47.711
	C362.39,521.451,361.568,520.49,360.294,520.486z M115.234,520.232H90.108c-1.273,0-2.54,0.967-2.822,2.139l-2.381,9.973
	l-2.382,9.975c-0.276,1.176,0.53,2.137,1.804,2.137h25.321c1.271,0,2.533-0.965,2.805-2.141l2.301-9.971l2.301-9.969
	C117.318,521.199,116.505,520.232,115.234,520.232z M107.945,551.273H82.618c-1.267,0-2.539,0.965-2.821,2.137l-3.558,14.945
	l-3.553,14.938l-0.991,4.285l-3.417,15.25l-3.411,15.26c-0.265,1.176-0.812,3.076-1.219,4.215c0,0-4.733,13.354-12.688,13.199
	l-0.996-0.02l-6.882-0.119h-0.006c-1.266-0.016-2.539,0.926-2.836,2.092l-2.626,10.471l-2.621,10.465
	c-0.298,1.176,0.504,2.141,1.765,2.16c4.511,0.051,14.616,0.158,20.729,0.158c19.868,0,30.346-10.441,37.055-40.484l7.858-34.479
	l7.369-32.34C110.035,552.238,109.211,551.273,107.945,551.273z M574.271,543.189l-1.053-4.111l-1.035-4.213l-0.523-2.125
	c-2.057-7.588-8.094-11.955-21.209-11.955l-20.416-0.021l-18.801-0.025H490.08c-1.271,0-2.525,0.965-2.791,2.143l-0.938,4.189
	l-1.104,4.951l-0.311,1.393l-9.525,42.316l-9.043,40.174c-0.27,1.18-0.355,2.627-0.207,3.213c0.152,0.59,2.596,1.074,3.861,1.074
	h19.084c1.271,0,2.881-0.217,3.572-0.484c0.695-0.266,1.719-2.635,1.971-3.809l3.393-15.918l3.393-15.92l0.008-0.025l0.453-2.119
	l4.115-18.283l3.633-16.145c0.271-1.18,1.523-2.139,2.789-2.143l60.049-0.025C573.755,545.328,574.556,544.365,574.271,543.189
	L574.271,543.189z M651.57,506.007l-4.625,0.016h-19.217c-1.275,0-2.906,0.816-3.615,1.813l-42.502,59.051
	c-0.715,0.996-1.531,0.852-1.813-0.318l-3.131-13.01c-0.281-1.176-1.557-2.137-2.828-2.137h-27.32c-1.271,0-2.023,0.947-1.676,2.102
	l12.24,40.68c0.35,1.16,0.377,3.061,0.063,4.232l-5.336,19.684c-0.316,1.172,0.463,2.121,1.734,2.121h27.004
	c1.27,0,2.566-0.955,2.883-2.121l5.338-19.684c0.314-1.178,1.197-2.912,1.965-3.879l68.998-86.852
	c0.771-0.963,0.355-1.748-0.914-1.74L651.57,506.007z M434.503,556.947v-0.02c-0.158,1.305-1.432,2.266-2.703,2.266H397.16
	c-1.201,0-1.811-0.771-1.629-1.725l0.031-0.078l-0.021,0.012l0.018-0.109l0.156-0.559c3.309-8.342,10.047-13.814,22.711-13.814
	C432.689,542.912,435.472,549.517,434.503,556.947L434.503,556.947z M424.337,519.027c-44.463,0-55,25.596-60.912,51.434
	c-5.908,26.336-5.404,50.949,40.611,50.949h5.578l1.387-0.004h0.324l5.521-0.018h0.1c12.148-0.047,24.34-0.133,29.273-0.17
	c1.26-0.02,2.494-0.98,2.754-2.154l1.863-8.633l0.363-1.682l2.219-10.301c0.254-1.18-0.574-2.148-1.848-2.148H410.21
	c-16.455,0-21.34-4.145-19.537-16.334h66.125l-0.006,0.002l0.041-0.002c1.053-0.016,2.025-0.705,2.41-1.619l0.158-0.545
	l-0.008,0.004C469.21,542.685,466.396,519.031,424.337,519.027L424.337,519.027z M214.183,556.814l-0.629,2.102v0.004l-4.993,16.783
	l-4.992,16.779c-0.341,1.166-1.667,2.111-2.941,2.111h-26.424c-20.046,0-24.931-14.875-20.046-36.805
	c4.879-22.432,14.447-36.373,34.18-37.787C215.303,518.072,220.696,536.056,214.183,556.814L214.183,556.814z M232.312,593.302
	c0,0,12.459-28.697,15.286-45.266c3.862-22.182-7.851-54.359-53.089-54.359c-44.976,0-64.514,30.715-71.964,64.111
	c-7.451,33.641,2.312,63.135,47.035,62.891l35.285-0.123l32.973-0.113c1.266-0.01,2.566-0.963,2.89-2.125l5.747-20.777
	c0.32-1.172-0.456-2.127-1.728-2.137l-5.507-0.031l-5.507-0.031c-1.078-0.004-1.694-0.672-1.564-1.551L232.312,593.302z
	 M454.976,574.091c0,0.797-0.676,1.443-1.518,1.443c-0.834,0-1.516-0.646-1.516-1.443c0-0.793,0.676-1.436,1.516-1.436
	C454.3,572.658,454.976,573.298,454.976,574.091z"/>
</svg>
