<?xml version="1.0" encoding="utf-8"?>
<!-- Generator: Adobe Illustrator 16.0.0, SVG Export Plug-In . SVG Version: 6.00 Build 0)  -->
<!DOCTYPE svg PUBLIC "-//W3C//DTD SVG 1.1//EN" "http://www.w3.org/Graphics/SVG/1.1/DTD/svg11.dtd">
<svg version="1.1" id="圖層_1" xmlns="http://www.w3.org/2000/svg" xmlns:xlink="http://www.w3.org/1999/xlink" x="0px" y="0px"
	 width="695.05px" height="695.05px" viewBox="0 0 695.05 695.05" enable-background="new 0 0 695.05 695.05" xml:space="preserve">
<path fill="#00618A" d="M-0.364,495.994h23.051v-91.031l35.688,79.359c4.208,9.607,9.971,13.002,21.278,13.002
	s16.851-3.395,21.059-13.002l35.688-79.359v91.031h23.051v-90.881c0-8.865-3.546-13.158-10.864-15.369
	c-17.512-5.465-29.263-0.734-34.582,11.088l-35.021,78.322l-33.909-78.328c-5.101-11.816-17.069-16.547-34.583-11.088
	c-7.317,2.217-10.863,6.504-10.863,15.369v90.887H-0.364z M178.624,421.89h23.044v50.152c-0.213,2.723,0.875,9.119,13.502,9.322
	c6.441,0.102,49.727,0,50.131,0v-59.721h23.102c0.107,0-0.021,81.439-0.021,81.777c0.123,20.09-24.92,24.447-36.469,24.785h-72.789
	v-15.51c0.124,0,72.74,0.018,72.917-0.006c14.844-1.566,13.086-8.939,13.08-11.42v-6.049h-48.992
	c-22.792-0.207-37.315-10.156-37.5-21.604C178.618,472.572,179.129,422.396,178.624,421.89L178.624,421.89z"/>
<path fill="#E48E00" d="M306.174,495.994h66.279c7.76,0,15.303-1.621,21.283-4.428c9.973-4.578,14.848-10.785,14.848-18.92V455.8
	c0-6.65-5.539-12.861-16.4-16.992c-5.764-2.223-12.861-3.395-19.734-3.395h-27.933c-9.311,0-13.742-2.807-14.848-9.012
	c-0.219-0.74-0.219-1.33-0.219-2.07v-10.492c0-0.592,0-1.186,0.219-1.922c1.105-4.729,3.547-6.059,11.75-6.801l2.217-0.145h65.837
	v-15.363h-64.726c-9.309,0-14.186,0.588-18.619,1.918c-13.742,4.287-19.734,11.082-19.734,22.906v13.443
	c0,10.348,11.756,19.213,31.479,21.283c2.223,0.141,4.434,0.299,6.648,0.299h23.943c0.887,0,1.773,0,2.441,0.141
	c7.316,0.588,10.414,1.924,12.637,4.578c1.33,1.33,1.768,2.666,1.768,4.135v13.451c0,1.621-1.105,3.691-3.322,5.465
	c-1.992,1.773-5.318,2.957-9.752,3.256l-2.441,0.146h-63.619V495.994L306.174,495.994z M552.402,469.25
	c0,15.809,11.75,24.674,35.463,26.453c2.217,0.146,4.434,0.291,6.65,0.291h60.072V480.63h-60.512
	c-13.521,0-18.619-3.4-18.619-11.531v-79.5h-23.051v79.65H552.402L552.402,469.25z M423.296,470.046v-54.795
	c0-13.916,9.775-22.359,29.102-25.025c1.996-0.297,4.225-0.443,6.217-0.443h43.762c2.225,0,4.221,0.146,6.438,0.443
	c19.326,2.666,29.105,11.104,29.105,25.025v54.795c0,11.301-4.152,17.34-13.721,21.277l22.715,20.498h-26.77l-18.373-16.588
	l-18.494,1.174h-24.662c-4.219,0-8.656-0.59-13.545-1.924C430.406,490.488,423.296,482.785,423.296,470.046L423.296,470.046z
	 M448.177,468.716c0,0.74,0.219,1.486,0.443,2.375c1.33,6.367,7.334,9.92,16.436,9.92h20.941l-19.234-17.367h26.77l16.771,15.15
	c3.098-1.654,5.129-4.17,5.842-7.406c0.219-0.74,0.219-1.48,0.219-2.223v-52.566c0-0.588,0-1.336-0.219-2.076
	c-1.336-5.926-7.334-9.326-16.217-9.326h-34.881c-10.213,0-16.879,4.445-16.879,11.402v52.117H448.177L448.177,468.716z"/>
<path fill="#00618A" d="M674.869,364.095c-14.17-0.389-24.994,0.932-34.252,4.83c-2.633,1.111-6.824,1.141-7.25,4.434
	c1.441,1.52,1.666,3.781,2.816,5.645c2.211,3.574,5.941,8.367,9.27,10.875c3.631,2.744,7.379,5.686,11.285,8.064
	c6.93,4.229,14.674,6.643,21.355,10.873c3.936,2.504,7.84,5.646,11.684,8.469c1.902,1.385,3.17,3.559,5.645,4.426v-0.396
	c-1.297-1.65-1.633-3.916-2.82-5.646l-5.242-5.24c-5.123-6.801-11.621-12.766-18.539-17.727c-5.51-3.955-17.844-9.303-20.145-15.717
	l-0.404-0.398c3.906-0.443,8.484-1.857,12.086-2.822c6.063-1.627,11.477-1.205,17.732-2.822l8.461-2.424v-1.605
	c-3.158-3.242-5.42-7.541-8.865-10.475c-9.018-7.684-18.869-15.359-29.01-21.767c-5.623-3.547-12.574-5.852-18.539-8.859
	c-1.998-1.016-5.521-1.537-6.854-3.227c-3.137-3.99-4.836-9.047-7.256-13.697c-5.049-9.734-10.02-20.373-14.504-30.627
	c-3.053-6.984-5.051-13.876-8.861-20.145c-18.297-30.082-37.992-48.239-68.502-66.083c-6.492-3.8-14.309-5.292-22.563-7.25
	l-13.299-0.809c-2.699-1.128-5.518-4.438-8.059-6.043c-10.111-6.386-36.035-20.273-43.521-2.009
	c-4.725,11.525,7.07,22.771,11.285,28.61c2.957,4.098,6.75,8.688,8.865,13.295c1.393,3.029,1.627,6.064,2.822,9.27
	c2.924,7.891,5.477,16.48,9.266,23.77c1.912,3.692,4.027,7.582,6.445,10.881c1.482,2.021,4.029,2.918,4.428,6.043
	c-2.484,3.479-2.631,8.889-4.027,13.293c-6.295,19.859-3.924,44.543,5.24,59.238c2.811,4.518,9.434,14.191,18.533,10.476
	c7.963-3.242,6.189-13.292,8.467-22.164c0.518-2.004,0.197-3.484,1.207-4.83v0.402l7.256,14.504
	c5.371,8.648,14.893,17.677,22.969,23.775c4.186,3.16,7.484,8.631,12.895,10.477v-0.408h-0.398
	c-1.057-1.635-2.688-2.307-4.035-3.625c-3.152-3.094-6.66-6.932-9.264-10.477c-7.346-9.967-13.832-20.88-19.746-32.236
	c-2.822-5.422-5.273-11.402-7.654-16.926c-0.92-2.125-0.908-5.346-2.816-6.439c-2.613,4.039-6.445,7.311-8.467,12.086
	c-3.221,7.631-3.637,16.939-4.83,26.592l-0.809,0.398c-5.617-1.354-7.588-7.133-9.674-12.088
	c-5.275-12.527-6.258-32.713-1.611-47.141c1.201-3.736,6.627-15.491,4.428-18.942c-1.049-3.438-4.512-5.427-6.441-8.063
	c-2.396-3.248-4.791-7.523-6.447-11.283c-4.32-9.77-6.334-20.739-10.875-30.621c-2.176-4.725-5.846-9.5-8.865-13.696
	c-3.338-4.657-7.082-8.08-9.674-13.703c-0.92-1.998-2.172-5.201-0.809-7.255c0.432-1.386,1.055-1.965,2.424-2.419
	c2.336-1.801,8.844,0.601,11.279,1.61c6.465,2.688,11.855,5.241,17.334,8.866c2.625,1.745,5.279,5.111,8.461,6.043h3.625
	c5.674,1.302,12.029,0.398,17.326,2.009c9.371,2.851,17.768,7.278,25.387,12.093c23.225,14.668,42.209,35.541,55.203,60.444
	c2.088,4.012,2.998,7.834,4.832,12.086c3.715,8.574,8.395,17.4,12.088,25.789c3.686,8.367,7.281,16.813,12.494,23.775
	c2.738,3.658,13.32,5.623,18.131,7.652c3.373,1.426,8.895,2.912,12.086,4.832c6.1,3.682,12.016,8.064,17.732,12.093
	C665.636,356.037,674.429,360.453,674.869,364.095L674.869,364.095z M494.751,210.576c-2.951-0.057-5.045,0.326-7.256,0.809v0.398
	h0.404c1.408,2.9,3.895,4.765,5.641,7.256l4.033,8.462l0.398-0.397c2.498-1.758,3.637-4.568,3.625-8.867
	c-1.004-1.055-1.15-2.373-2.016-3.625C498.439,212.927,496.205,211.984,494.751,210.576z"/>
</svg>
